<?xml version="1.0" encoding="utf-8"?>
<!-- Generator: Adobe Illustrator 15.1.0, SVG Export Plug-In . SVG Version: 6.00 Build 0)  -->
<!DOCTYPE svg PUBLIC "-//W3C//DTD SVG 1.1//EN" "http://www.w3.org/Graphics/SVG/1.1/DTD/svg11.dtd">
<svg version="1.1" id="Camada_1" xmlns="http://www.w3.org/2000/svg" xmlns:xlink="http://www.w3.org/1999/xlink" x="0px" y="0px"
	 width="564.835px" height="485.219px" viewBox="0 0 564.835 485.219" enable-background="new 0 0 564.835 485.219"
	 xml:space="preserve">
<pattern  x="-27.604" y="-37.935" width="84.156" height="81.6" patternUnits="userSpaceOnUse" id="Laguna" viewBox="0 -84.791 84.156 81.6" overflow="visible">
	<g>
		<polygon fill="none" points="0,-3.191 0,-84.791 84.156,-84.791 84.156,-3.191 		"/>
		<path fill="#BF0411" d="M42.078-30.391c0,0-29.855,17.513-33.029,17.982C7.287-14.171,0-30.391,0-30.391
			C13.164-20.519,29.148-23.339,42.078-30.391z"/>
		<path fill="#BF0411" d="M42.078-57.591c0,0-29.855,17.513-33.029,17.981C7.287-41.371,0-57.591,0-57.591
			C13.164-47.718,29.148-50.539,42.078-57.591z"/>
		<path fill="#BF0411" d="M42.078-84.791c0,0-29.855,17.514-33.029,17.981C7.287-68.57,0-84.791,0-84.791
			C13.164-74.918,29.148-77.74,42.078-84.791z"/>
		<path fill="#72408D" d="M84.156-30.391c0,0-29.855,17.513-33.029,17.982c-1.762-1.763-9.049-17.982-9.049-17.982
			C55.242-20.519,71.227-23.339,84.156-30.391z"/>
		<path fill="#72408D" d="M84.156-57.591c0,0-29.855,17.513-33.029,17.981c-1.762-1.762-9.049-17.981-9.049-17.981
			C55.242-47.718,71.227-50.539,84.156-57.591z"/>
		<path fill="#72408D" d="M84.156-84.791c0,0-29.855,17.514-33.029,17.981c-1.762-1.761-9.049-17.981-9.049-17.981
			C55.242-74.918,71.227-77.74,84.156-84.791z"/>
		<path fill="#55973D" d="M21.039-33.582c-1.762,0-3.191,1.43-3.191,3.191s1.43,3.19,3.191,3.19s3.189-1.429,3.189-3.19
			S22.801-33.582,21.039-33.582z"/>
		<path fill="#55973D" d="M21.039-6.382c-1.762,0-3.191,1.429-3.191,3.19c0,1.763,1.43,3.191,3.191,3.191s3.189-1.429,3.189-3.191
			C24.229-4.953,22.801-6.382,21.039-6.382z"/>
		<path fill="#55973D" d="M21.039-60.782c-1.762,0-3.191,1.43-3.191,3.191s1.43,3.191,3.191,3.191s3.189-1.43,3.189-3.191
			S22.801-60.782,21.039-60.782z"/>
		<path fill="#55973D" d="M21.039-87.982c-1.762,0-3.191,1.428-3.191,3.191c0,1.763,1.43,3.191,3.191,3.191s3.189-1.429,3.189-3.191
			C24.229-86.555,22.801-87.982,21.039-87.982z"/>
		<path fill="#55973D" d="M63.117-33.582c-1.762,0-3.191,1.43-3.191,3.191s1.43,3.19,3.191,3.19s3.189-1.429,3.189-3.19
			S64.879-33.582,63.117-33.582z"/>
		<path fill="#55973D" d="M63.117-6.382c-1.762,0-3.191,1.429-3.191,3.19c0,1.763,1.43,3.191,3.191,3.191s3.189-1.429,3.189-3.191
			C66.307-4.953,64.879-6.382,63.117-6.382z"/>
		<path fill="#55973D" d="M63.117-60.782c-1.762,0-3.191,1.43-3.191,3.191s1.43,3.191,3.191,3.191s3.189-1.43,3.189-3.191
			S64.879-60.782,63.117-60.782z"/>
		<path fill="#55973D" d="M63.117-87.982c-1.762,0-3.191,1.428-3.191,3.191c0,1.763,1.43,3.191,3.191,3.191s3.189-1.429,3.189-3.191
			C66.307-86.555,64.879-87.982,63.117-87.982z"/>
		<path fill="#72408D" d="M0-3.191c0,0,29.854-17.513,33.027-17.982c1.763,1.763,9.051,17.982,9.051,17.982
			C28.914-13.064,12.928-10.242,0-3.191z"/>
		<path fill="#72408D" d="M0-30.391c0,0,29.854-17.513,33.027-17.983c1.763,1.764,9.051,17.983,9.051,17.983
			C28.914-40.265,12.928-37.443,0-30.391z"/>
		<path fill="#72408D" d="M0-57.591c0,0,29.854-17.513,33.027-17.984c1.763,1.765,9.051,17.984,9.051,17.984
			C28.914-67.465,12.928-64.644,0-57.591z"/>
		<path fill="#BF0411" d="M42.078-3.191c0,0,29.854-17.513,33.027-17.982c1.764,1.763,9.051,17.982,9.051,17.982
			C70.992-13.064,55.006-10.242,42.078-3.191z"/>
		<path fill="#BF0411" d="M42.078-30.391c0,0,29.854-17.513,33.027-17.983c1.764,1.764,9.051,17.983,9.051,17.983
			C70.992-40.265,55.006-37.443,42.078-30.391z"/>
		<path fill="#BF0411" d="M42.078-57.591c0,0,29.854-17.513,33.027-17.984c1.764,1.765,9.051,17.984,9.051,17.984
			C70.992-67.465,55.006-64.644,42.078-57.591z"/>
	</g>
</pattern>
<polygon fill="#7B057E" stroke="#000000" stroke-miterlimit="10" points="386.501,416.433 179.352,415.737 76.368,239.469 
	180.533,63.896 387.681,64.592 490.664,240.859 "/>
<rect x="167.329" y="124.337" transform="matrix(1 -0.0021 0.0021 1 -0.491 0.5935)" fill="none" stroke="#000000" stroke-width="7" stroke-miterlimit="10" width="231.843" height="221.002"/>
<polygon fill="#002E82" stroke="#000000" stroke-width="7" stroke-miterlimit="10" points="544.649,273.538 526.979,264.345 
	509.39,273.689 512.672,254.043 498.35,240.202 518.049,237.252 526.787,219.354 535.679,237.177 555.4,239.957 541.197,253.921 "/>
<polygon fill="none" stroke="#000000" stroke-width="7" stroke-miterlimit="10" points="387.605,415.198 180.196,415.966 
	75.843,240.695 178.897,64.657 386.304,63.891 490.658,239.161 "/>
<polygon fill="#002E82" stroke="#000000" stroke-width="7" stroke-miterlimit="10" points="260.665,63.791 264.091,44.17 
	249.87,30.225 269.589,27.42 278.458,9.585 287.22,27.473 306.921,30.396 292.616,44.256 295.925,63.896 278.321,54.575 "/>
<polygon fill="#002E82" stroke="#000000" stroke-width="7" stroke-miterlimit="10" points="262.162,478.598 264.718,458.845 
	249.894,445.541 269.471,441.867 277.542,423.658 287.085,441.143 306.897,443.191 293.22,457.67 297.392,477.146 279.394,468.611 
	"/>
<pattern  id="SVGID_1_" xlink:href="#Laguna" patternTransform="matrix(1 0 0 1 -2.1978 66.2144)">
</pattern>
<text transform="matrix(1.4698 0 0 1 219.5796 236.9043)" fill="url(#SVGID_1_)" stroke="#000000" stroke-width="3" stroke-miterlimit="10" font-family="'Cambria'" font-size="42.1838"><pattern  id="SVGID_2_" xlink:href="#Laguna" patternTransform="matrix(1 0 0 1 -2.1978 66.2144)">
</pattern>
E.N.L</text>
<path fill="#B20053" stroke="#000000" stroke-width="4" stroke-miterlimit="10" d="M409.739,324.664
	c0,7.842-6.242,14.199-13.939,14.199H160.079c-7.698,0-13.938-6.357-13.938-14.199V145.015c0-7.842,6.24-14.199,13.938-14.199H395.8
	c7.697,0,13.939,6.357,13.939,14.199V324.664z"/>
<rect x="162.475" y="124.338" transform="matrix(0.661 0.7504 -0.7504 0.661 270.5837 -129.2942)" fill="none" stroke="#000000" stroke-width="7" stroke-miterlimit="10" width="231.843" height="221.002"/>
<polygon fill="#002E82" stroke="#000000" stroke-width="7" stroke-miterlimit="10" points="21.407,272.934 25.299,253.4 
	11.413,239.12 31.194,236.785 40.483,219.166 48.817,237.257 68.443,240.647 53.814,254.164 56.654,273.877 39.278,264.14 "/>
<text transform="matrix(1.4008 0 0 1 171.5215 210.3618)"><tspan x="0" y="0" font-family="'Cambria'" font-size="42.9102">   E.N.L</tspan><tspan x="0" y="51.492" font-family="'Cambria'" font-size="42.9102">computer</tspan></text>
</svg>
